<svg width="16" height="16" viewBox="0 0 16 16" fill="none" xmlns="http://www.w3.org/2000/svg">
<g clip-path="url(#clip0_2965_7200)">
<path d="M12.375 1.875H11.75V1.25C11.75 1.08424 11.6842 0.925269 11.5669 0.808058C11.4497 0.690848 11.2908 0.625 11.125 0.625C10.9592 0.625 10.8003 0.690848 10.6831 0.808058C10.5658 0.925269 10.5 1.08424 10.5 1.25V1.875H5.5V1.25C5.5 1.08424 5.43415 0.925269 5.31694 0.808058C5.19973 0.690848 5.04076 0.625 4.875 0.625C4.70924 0.625 4.55027 0.690848 4.43306 0.808058C4.31585 0.925269 4.25 1.08424 4.25 1.25V1.875H3.625C2.7965 1.87599 2.00222 2.20555 1.41639 2.79139C0.830551 3.37722 0.500992 4.1715 0.5 5L0.5 12.5C0.500992 13.3285 0.830551 14.1228 1.41639 14.7086C2.00222 15.2944 2.7965 15.624 3.625 15.625H12.375C13.2035 15.624 13.9978 15.2944 14.5836 14.7086C15.1694 14.1228 15.499 13.3285 15.5 12.5V5C15.499 4.1715 15.1694 3.37722 14.5836 2.79139C13.9978 2.20555 13.2035 1.87599 12.375 1.875ZM1.75 5C1.75 4.50272 1.94754 4.02581 2.29917 3.67417C2.65081 3.32254 3.12772 3.125 3.625 3.125H12.375C12.8723 3.125 13.3492 3.32254 13.7008 3.67417C14.0525 4.02581 14.25 4.50272 14.25 5V5.625H1.75V5ZM12.375 14.375H3.625C3.12772 14.375 2.65081 14.1775 2.29917 13.8258C1.94754 13.4742 1.75 12.9973 1.75 12.5V6.875H14.25V12.5C14.25 12.9973 14.0525 13.4742 13.7008 13.8258C13.3492 14.1775 12.8723 14.375 12.375 14.375Z" fill="#374957"/>
<path d="M8 10.9375C8.51777 10.9375 8.9375 10.5178 8.9375 10C8.9375 9.48223 8.51777 9.0625 8 9.0625C7.48223 9.0625 7.0625 9.48223 7.0625 10C7.0625 10.5178 7.48223 10.9375 8 10.9375Z" fill="#182649"/>
<path d="M4.87488 10.9375C5.39264 10.9375 5.81238 10.5178 5.81238 10C5.81238 9.48223 5.39264 9.0625 4.87488 9.0625C4.35711 9.0625 3.93738 9.48223 3.93738 10C3.93738 10.5178 4.35711 10.9375 4.87488 10.9375Z" fill="#374957"/>
<path d="M11.1251 10.9375C11.6428 10.9375 12.0626 10.5178 12.0626 10C12.0626 9.48223 11.6428 9.0625 11.1251 9.0625C10.6073 9.0625 10.1876 9.48223 10.1876 10C10.1876 10.5178 10.6073 10.9375 11.1251 10.9375Z" fill="#374957"/>
</g>
<defs>
<clipPath id="clip0_2965_7200">
<rect width="15" height="15" fill="white" transform="translate(0.5 0.625)"/>
</clipPath>
</defs>
</svg>
