<svg width="10" height="11" viewBox="0 0 10 11" fill="none" xmlns="http://www.w3.org/2000/svg">
<g clip-path="url(#clip0_2860_7227)">
<path d="M5.76876 7.4481L4.40959 8.80726C4.01498 9.19133 3.48501 9.40459 2.93436 9.4009C2.38371 9.39721 1.85665 9.17687 1.46722 8.78754C1.07779 8.39822 0.857297 7.87123 0.853452 7.32058C0.849607 6.76993 1.06272 6.23991 1.44668 5.84518L2.80584 4.48477C2.88397 4.40659 2.92784 4.30057 2.9278 4.19004C2.92776 4.07951 2.88382 3.97352 2.80563 3.8954C2.72745 3.81727 2.62143 3.7734 2.5109 3.77344C2.40037 3.77348 2.29439 3.81742 2.21626 3.8956L0.857509 5.25602C0.308455 5.80535 0.000109912 6.55029 0.000305269 7.32696C0.000500625 8.10363 0.309221 8.84842 0.85855 9.39747C1.40788 9.94652 2.15282 10.2549 2.9295 10.2547C3.70617 10.2545 4.45096 9.94576 5.00001 9.39643L6.35918 8.03726C6.43507 7.95868 6.47707 7.85343 6.47612 7.74418C6.47517 7.63493 6.43135 7.53043 6.3541 7.45317C6.27685 7.37592 6.17234 7.3321 6.06309 7.33115C5.95384 7.3302 5.84859 7.3722 5.77001 7.4481H5.76876Z" fill="#182649"/>
<path d="M9.14337 1.10876C8.87223 0.835766 8.54962 0.619293 8.19422 0.471884C7.83882 0.324474 7.45771 0.24906 7.07295 0.25001C6.68839 0.248989 6.30745 0.324209 5.95215 0.471323C5.59684 0.618437 5.27422 0.834525 5.00295 1.10709L3.6417 2.46668C3.56352 2.54481 3.51957 2.65079 3.51953 2.76132C3.51949 2.87185 3.56336 2.97787 3.64149 3.05605C3.71962 3.13424 3.82561 3.17818 3.93614 3.17822C4.04666 3.17826 4.15268 3.13439 4.23087 3.05626L5.59128 1.69709C5.78526 1.50195 6.01603 1.34722 6.27021 1.24187C6.5244 1.13652 6.79696 1.08264 7.07212 1.08334C7.48639 1.08348 7.89133 1.20644 8.23573 1.43668C8.58014 1.66691 8.84855 1.99409 9.00704 2.37685C9.16554 2.75961 9.20699 3.18077 9.12616 3.58708C9.04534 3.9934 8.84586 4.36663 8.55295 4.65959L7.19378 6.01876C7.1156 6.09694 7.07168 6.20298 7.07168 6.31355C7.07168 6.42412 7.1156 6.53016 7.19378 6.60834C7.27197 6.68653 7.37801 6.73045 7.48857 6.73045C7.59914 6.73045 7.70518 6.68653 7.78337 6.60834L9.14253 5.25001C9.69088 4.70047 9.99891 3.95589 9.99907 3.17956C9.99923 2.40323 9.6915 1.65852 9.14337 1.10876Z" fill="#182649"/>
<path d="M5.95551 3.7029L3.45551 6.2029C3.41572 6.24133 3.38397 6.28731 3.36214 6.33814C3.3403 6.38898 3.3288 6.44365 3.32832 6.49898C3.32784 6.5543 3.33839 6.60917 3.35934 6.66038C3.38029 6.71158 3.41123 6.7581 3.45035 6.79723C3.48947 6.83635 3.53599 6.86729 3.5872 6.88824C3.6384 6.90919 3.69327 6.91973 3.7486 6.91925C3.80392 6.91877 3.8586 6.90727 3.90943 6.88544C3.96027 6.8636 4.00624 6.83186 4.04468 6.79206L6.54468 4.29207C6.62058 4.21348 6.66258 4.10823 6.66163 3.99898C6.66068 3.88973 6.61686 3.78523 6.5396 3.70798C6.46235 3.63072 6.35784 3.5869 6.2486 3.58595C6.13935 3.585 6.0341 3.627 5.95551 3.7029Z" fill="#182649"/>
</g>
<defs>
<clipPath id="clip0_2860_7227">
<rect width="10" height="10" fill="white" transform="translate(0 0.25)"/>
</clipPath>
</defs>
</svg>
