<svg width="16" height="16" viewBox="0 0 16 16" fill="none" xmlns="http://www.w3.org/2000/svg">
<g clip-path="url(#clip0_2965_7228)">
<path d="M15.5 6.20528V12.0028C15.499 12.8313 15.1695 13.6256 14.5836 14.2114C13.9978 14.7972 13.2035 15.1268 12.375 15.1278H11.75C11.5842 15.1278 11.4253 15.0619 11.3081 14.9447C11.1909 14.8275 11.125 14.6685 11.125 14.5028C11.125 14.337 11.1909 14.1781 11.3081 14.0608C11.4253 13.9436 11.5842 13.8778 11.75 13.8778H12.375C12.8723 13.8778 13.3492 13.6802 13.7008 13.3286C14.0525 12.977 14.25 12.5001 14.25 12.0028V6.20528C14.25 5.89836 14.1747 5.59612 14.0306 5.3251C13.8866 5.05409 13.6782 4.82258 13.4238 4.65091L9.04875 1.69903C8.73961 1.48829 8.37415 1.37557 8 1.37557C7.62586 1.37557 7.2604 1.48829 6.95125 1.69903L2.57625 4.65091C2.32183 4.82258 2.11344 5.05409 1.96938 5.3251C1.82531 5.59612 1.74998 5.89836 1.75 6.20528V12.0028C1.75 12.5001 1.94755 12.977 2.29918 13.3286C2.65081 13.6802 3.12772 13.8778 3.625 13.8778H4.25C4.41576 13.8778 4.57473 13.9436 4.69194 14.0608C4.80915 14.1781 4.875 14.337 4.875 14.5028C4.875 14.6685 4.80915 14.8275 4.69194 14.9447C4.57473 15.0619 4.41576 15.1278 4.25 15.1278H3.625C2.79651 15.1268 2.00223 14.7972 1.41639 14.2114C0.830554 13.6256 0.500995 12.8313 0.500002 12.0028V6.20528C0.499362 5.69386 0.624427 5.19011 0.864193 4.73837C1.10396 4.28663 1.45108 3.90074 1.875 3.61466L6.25 0.662158C6.76579 0.312129 7.37478 0.125 7.99813 0.125C8.62147 0.125 9.23046 0.312129 9.74625 0.662158L14.1213 3.61466C14.5456 3.90059 14.8932 4.28635 15.1336 4.73806C15.374 5.18976 15.4998 5.69359 15.5 6.20528ZM12.375 9.50716C12.3766 10.0818 12.2642 10.6511 12.0443 11.1821C11.8243 11.713 11.5013 12.1951 11.0938 12.6003L8.89688 14.749C8.65638 14.9819 8.33475 15.1121 8 15.1121C7.66525 15.1121 7.34363 14.9819 7.10313 14.749L4.91125 12.6053C4.4015 12.0971 4.025 11.471 3.81512 10.7825C3.60524 10.094 3.56848 9.3644 3.70808 8.6583C3.84769 7.95219 4.15935 7.29143 4.61544 6.73461C5.07153 6.17778 5.65796 5.74208 6.32274 5.46614C6.98752 5.19019 7.71011 5.08253 8.42646 5.15269C9.14281 5.22285 9.83078 5.46867 10.4294 5.86835C11.028 6.26804 11.5187 6.80924 11.8581 7.44397C12.1975 8.07871 12.3751 8.78738 12.375 9.50716ZM11.125 9.50716C11.125 8.99327 10.9983 8.4873 10.756 8.03408C10.5138 7.58086 10.1635 7.19437 9.73627 6.90885C9.309 6.62333 8.8179 6.44758 8.30649 6.39718C7.79507 6.34678 7.27912 6.42328 6.80433 6.61991C6.32954 6.81653 5.91056 7.12721 5.58452 7.52443C5.25847 7.92164 5.03542 8.39314 4.93511 8.89715C4.8348 9.40115 4.86034 9.92212 5.00946 10.4139C5.15858 10.9057 5.42667 11.3531 5.79 11.7165L7.9775 13.8553L10.215 11.7115C10.5048 11.4224 10.7344 11.0788 10.8906 10.7004C11.0468 10.322 11.1264 9.91648 11.125 9.50716ZM9.875 9.50278C9.875 9.87362 9.76504 10.2361 9.55901 10.5445C9.35298 10.8528 9.06015 11.0931 8.71754 11.2351C8.37492 11.377 7.99792 11.4141 7.63421 11.3418C7.27049 11.2694 6.9364 11.0908 6.67418 10.8286C6.41195 10.5664 6.23338 10.2323 6.16103 9.86858C6.08868 9.50486 6.12581 9.12786 6.26773 8.78525C6.40964 8.44264 6.64997 8.14981 6.95831 7.94378C7.26665 7.73775 7.62916 7.62778 8 7.62778C8.49728 7.62778 8.9742 7.82533 9.32583 8.17696C9.67746 8.52859 9.875 9.0055 9.875 9.50278Z" fill="#182649"/>
</g>
<defs>
<clipPath id="clip0_2965_7228">
<rect width="15" height="15" fill="white" transform="translate(0.5 0.125)"/>
</clipPath>
</defs>
</svg>
