<svg width="16" height="16" viewBox="0 0 16 16" fill="none" xmlns="http://www.w3.org/2000/svg">
<g clip-path="url(#clip0_2965_7218)">
<path d="M8 0.625C6.51664 0.625 5.0666 1.06487 3.83323 1.88898C2.59986 2.71309 1.63856 3.88443 1.07091 5.25487C0.50325 6.62532 0.354725 8.13332 0.644114 9.58818C0.933503 11.043 1.64781 12.3794 2.6967 13.4283C3.7456 14.4772 5.08197 15.1915 6.53683 15.4809C7.99168 15.7703 9.49968 15.6218 10.8701 15.0541C12.2406 14.4864 13.4119 13.5251 14.236 12.2918C15.0601 11.0584 15.5 9.60836 15.5 8.125C15.4979 6.13654 14.707 4.23013 13.3009 2.82407C11.8949 1.41802 9.98847 0.627151 8 0.625V0.625ZM8 14.375C6.76387 14.375 5.5555 14.0084 4.52769 13.3217C3.49988 12.6349 2.6988 11.6588 2.22576 10.5168C1.75271 9.37473 1.62894 8.11807 1.8701 6.90569C2.11125 5.69331 2.70651 4.57966 3.58059 3.70558C4.45466 2.8315 5.56831 2.23625 6.78069 1.99509C7.99307 1.75393 9.24974 1.87771 10.3918 2.35075C11.5338 2.8238 12.5099 3.62488 13.1967 4.65269C13.8834 5.68049 14.25 6.88887 14.25 8.125C14.2482 9.78205 13.5891 11.3707 12.4174 12.5424C11.2457 13.7141 9.65705 14.3732 8 14.375Z" fill="#182649"/>
<path d="M7.99991 4.375C7.83414 4.375 7.67517 4.44085 7.55796 4.55806C7.44075 4.67527 7.3749 4.83424 7.3749 5V7.70312L5.26803 9.02312C5.12713 9.11114 5.02697 9.25152 4.98958 9.41339C4.95219 9.57525 4.98064 9.74535 5.06866 9.88624C5.15667 10.0271 5.29706 10.1273 5.45893 10.1647C5.62079 10.2021 5.79088 10.1736 5.93178 10.0856L8.33178 8.58562C8.42246 8.5288 8.49703 8.44966 8.54836 8.35576C8.59968 8.26187 8.62604 8.15637 8.6249 8.04937V5C8.6249 4.83424 8.55906 4.67527 8.44185 4.55806C8.32464 4.44085 8.16567 4.375 7.99991 4.375Z" fill="#182649"/>
</g>
<defs>
<clipPath id="clip0_2965_7218">
<rect width="15" height="15" fill="white" transform="translate(0.5 0.625)"/>
</clipPath>
</defs>
</svg>
